<svg xmlns="http://www.w3.org/2000/svg" xmlns:xlink="http://www.w3.org/1999/xlink" width="82.477" height="39.816" viewBox="0 0 82.477 39.816">
  <defs>
    <linearGradient id="linear-gradient" x1="0.72" y1="0.118" x2="0.5" y2="1" gradientUnits="objectBoundingBox">
      <stop offset="0" stop-color="#003274"/>
      <stop offset="1" stop-color="#9dc1ce"/>
    </linearGradient>
  </defs>
  <g id="car" transform="translate(-3 -45.665)">
    <path id="Контур_46" data-name="Контур 46" d="M82.633,58.6h2.844v-.377A2.844,2.844,0,0,0,83.035,55.4l-17.466-2.5L48.992,36.332A11.376,11.376,0,0,0,40.948,33H9.565a2.844,2.844,0,0,0-2.782,2.249L3,52.908v12.8a1.422,1.422,0,0,0,1.422,1.422H15.8a5.688,5.688,0,1,0,11.376,0H64.147a5.688,5.688,0,1,0,11.376,0h8.532a1.422,1.422,0,0,0,1.422-1.422V61.44H82.633a1.422,1.422,0,1,1,0-2.844ZM17.22,50.064V44.376H14.376V41.532H17.22V38.688h2.844v2.844h2.844v2.844H20.064v5.688Zm4.266,19.908a2.844,2.844,0,1,1,2.844-2.844A2.844,2.844,0,0,1,21.486,69.972ZM34.284,58.6H32.862a1.422,1.422,0,0,1,0-2.844h1.422a1.422,1.422,0,1,1,0,2.844Zm8.532-5.688H31.639l3.2-8.532h7.978ZM48.5,58.6H47.082a1.422,1.422,0,1,1,0-2.844H48.5a1.422,1.422,0,1,1,0,2.844ZM45.66,52.908V44.376h7.352l8.532,8.532ZM69.835,69.972a2.844,2.844,0,1,1,2.844-2.844A2.844,2.844,0,0,1,69.835,69.972Z" transform="translate(0 12.665)" fill="url(#linear-gradient)"/>
  </g>
</svg>
