<svg xmlns="http://www.w3.org/2000/svg" width="13.931" height="20.26" viewBox="0 0 13.931 20.26">
  <g id="pin" transform="translate(-79.968 0)">
    <path id="Контур_89" data-name="Контур 89" d="M92.931,3.469A6.875,6.875,0,0,0,87.089,0c-.1,0-.208,0-.312,0a6.875,6.875,0,0,0-5.842,3.468,7.053,7.053,0,0,0-.092,6.969l5.024,9.2.007.012a1.221,1.221,0,0,0,2.118,0L88,19.634l5.024-9.2a7.053,7.053,0,0,0-.092-6.969Zm-6,5.711a2.849,2.849,0,1,1,2.849-2.849A2.852,2.852,0,0,1,86.933,9.18Z" transform="translate(0 0)" fill="#009100"/>
  </g>
</svg>
