<svg xmlns="http://www.w3.org/2000/svg" xmlns:xlink="http://www.w3.org/1999/xlink" width="28.297" height="12.204" viewBox="0 0 28.297 12.204">
  <defs>
    <linearGradient id="linear-gradient" x1="0.5" x2="0.5" y2="1" gradientUnits="objectBoundingBox">
      <stop offset="0" stop-color="#003274"/>
      <stop offset="1" stop-color="#9dc1ce"/>
    </linearGradient>
  </defs>
  <g id="swon_small" transform="translate(-168.365 -355.631)">
    <path id="Контур_85" data-name="Контур 85" d="M195.239,366.968c-1.821-.016-2.435-.011-4.255-.014h-.635l-.01-.1a1.14,1.14,0,0,1,.3-.092c.826-.019,1.653-.016,2.478-.041,1.35-.041,1.493-.092,2.842-.155a3.043,3.043,0,0,0,.613-.139.069.069,0,0,0,.051-.069h0a.068.068,0,0,0-.056-.064,5.5,5.5,0,0,0-.922-.144c-3.309-.011-5.411-.006-8.72-.005h-2.081l.63-1.248a4.436,4.436,0,0,0,.772.236.51.51,0,0,0,.409-.2c.048-.074-.046-.293-.137-.391a4.24,4.24,0,0,0-.535-.429l.107-.153a3.794,3.794,0,0,0,.549.328,3.242,3.242,0,0,0,.818.219c.118.013.354-.129.358-.208a.715.715,0,0,0-.189-.464,2.312,2.312,0,0,0-.453-.278,3.1,3.1,0,0,1-.287-.243l.049-.088c.179.07.359.138.538.209a8,8,0,0,0,1.059.407,1.235,1.235,0,0,0,.737-.074c.325-.145.333-.412.015-.571a10.35,10.35,0,0,0-1.219-.453c-.134-.047-.276-.07-.414-.1v-.1a2.435,2.435,0,0,1,.372,0c.717.112,1.431.249,2.151.342a2.093,2.093,0,0,0,.759-.078.675.675,0,0,0,.361-.271c.154-.237.054-.452-.228-.47-.568-.036-1.139-.03-1.708-.051-.291-.011-.582-.046-.872-.07,0-.04,0-.079,0-.118a5.4,5.4,0,0,1,.542-.055c.872,0,1.746.038,2.615-.013a3.57,3.57,0,0,0,1.164-.356c.2-.086.443-.267.32-.547s-.394-.193-.623-.155c-.838.138-1.675.288-2.514.414a9.039,9.039,0,0,1-.911.048l-.021-.127c.214-.053.426-.122.643-.158.938-.154,1.879-.286,2.815-.452a6.4,6.4,0,0,0,1.459-.363,4.342,4.342,0,0,0,1.125-.8c.132-.121.127-.391.185-.594a2,2,0,0,0-.6-.006c-.459.138-.9.343-1.355.491q-1.785.578-3.581,1.125a4.039,4.039,0,0,1-.7.088l-.033-.12A5.229,5.229,0,0,1,189.6,360c.712-.193,1.437-.342,2.14-.562.895-.281,1.785-.587,2.654-.938a5.383,5.383,0,0,0,1.133-.7.951.951,0,0,0,.365-.889,5.587,5.587,0,0,0-.711.145c-1.343.459-2.685.921-4.021,1.4-1.052.377-2.094.78-3.14,1.173a3.4,3.4,0,0,0-1.613,1.254,10.161,10.161,0,0,1-1.135,1.272,5.668,5.668,0,0,1-.778.551l-.567-.939q-.855-1.422-1.708-2.846a1.712,1.712,0,0,1-.165-1.483,1.332,1.332,0,0,1,.338-.525.65.65,0,0,1,1.033.145c.125.2.2.428.33.621a6.617,6.617,0,0,0,.473.561l.131-.045a2.572,2.572,0,0,0,.088-.732,2.292,2.292,0,0,0-.323-.629l.119-.1.808.684a1.3,1.3,0,0,0-.417-1.054,2.556,2.556,0,0,0-1.953-.731,1.836,1.836,0,0,0-1.707,2.174,9.774,9.774,0,0,0,.409,1.446c.226.746.493,1.482.676,2.239a3.08,3.08,0,0,1-.147,1.718c-.015.042-.025.086-.039.128-.123.383-.273.76-.359,1.152s-.1.782-.15,1.2c-.3-.158-.293-.485-.277-.8a5.479,5.479,0,0,1,.183-1.023c.074-.3.179-.539.29-.875-.154-.08-.415-.233-.561-.306a4.925,4.925,0,0,1-1.9-1.608,4.186,4.186,0,0,0-2.088-1.606c-2.084-.741-4.156-1.519-6.238-2.269-.4-.146-.831-.228-1.287-.349a.955.955,0,0,0,.386,1,4.953,4.953,0,0,0,1.241.713c1.364.463,2.748.865,4.126,1.288.278.085.56.156.838.241a2.506,2.506,0,0,1,.284.123c-.009.039-.017.079-.025.118a4.109,4.109,0,0,1-.686-.091c-1.356-.414-2.709-.841-4.061-1.268-.373-.118-.737-.263-1.113-.367-.121-.034-.334-.021-.386.054a.471.471,0,0,0,.018.4,1.91,1.91,0,0,0,1.141.932,15.96,15.96,0,0,0,1.851.46c.878.166,1.766.284,2.648.429.182.03.358.087.538.132l-.011.1c-.354-.023-.711-.026-1.062-.074-.808-.109-1.613-.25-2.422-.353-.181-.023-.5.006-.539.1a.488.488,0,0,0,.3.6,2.4,2.4,0,0,0,.9.32c.925.049,1.854.028,2.781.039.218,0,.435.026.652.04,0,.036.007.072.01.108a2.09,2.09,0,0,1-.325.062c-.424.016-.849.019-1.274.031-.313.008-.627,0-.936.04-.123.014-.34.136-.333.18.028.17.09.425.209.473a2.132,2.132,0,0,0,.936.175c.688-.063,1.368-.2,2.052-.311.157-.025.316-.043.473-.064l.025.11-.311.1c-.4.135-.813.246-1.2.419-.148.066-.232.268-.345.408.166.118.329.328.5.333a2.619,2.619,0,0,0,.9-.176c.386-.133.753-.317,1.128-.48.021.025.042.049.062.076a1.293,1.293,0,0,1-.195.213c-.127.09-.271.156-.4.236-.215.128-.425.33-.315.557a.688.688,0,0,0,.564.216,2.115,2.115,0,0,0,.673-.263c.145-.067.279-.157.417-.236l.072.1a4.136,4.136,0,0,1-.3.291c-.2.157-.37.352-.24.6.146.277.418.2.654.1.165-.065.323-.146.52-.237l.724,1.279H180.2c-3.59,0-7.18-.007-10.77.007a5.929,5.929,0,0,0-1,.143.078.078,0,0,0-.07.074v0a.079.079,0,0,0,.055.08,1.952,1.952,0,0,0,.425.11c1.1.077,1.589.138,2.692.209q1.42.091,2.839.194c.06,0,.118.04.185.137a1.862,1.862,0,0,1-.35.067c-.894.012-1.789.016-2.683.022-1.2.008-.963.012-2.159.025a1.068,1.068,0,0,0-.313.053.044.044,0,0,0,.01.085c3.245.277,5.189.134,8.476.288a.34.34,0,0,0,.072,0l.023,0h.014a.274.274,0,0,0,.078-.005h.009c.5-.066,1-.152,1.5-.2a.094.094,0,0,0,.085-.1h0c1.121-.149,2.263.147,3.381-.057l0-.084-1.167-.095v-.041h4.8l.008.092-.422.069,0,.039,1.771.123v.063l-1.355.1a.042.042,0,0,0-.022.076l.058.044a.1.1,0,0,0,.067.017h.013c.4,0,.807.044,1.21.072s.792.033,1.187.068l.248.023h.016l.187,0a4.374,4.374,0,0,0,.808-.034.379.379,0,0,1,.061,0c.074,0,.12,0,.2,0h0a.045.045,0,0,0,.032-.04l.006-.085,6.208-.493a.049.049,0,0,0,.044-.043h0a.049.049,0,0,0-.044-.053C196.158,367.037,195.7,366.972,195.239,366.968Z" transform="translate(0 0)" fill="url(#linear-gradient)"/>
    <path id="Контур_86" data-name="Контур 86" d="M831.287,450.818l-.777-1.888c-.379.146-.462.3-.286.6A3.456,3.456,0,0,0,831.287,450.818Z" transform="translate(-645.469 -91.001)" fill="url(#linear-gradient)"/>
  </g>
</svg>
