<svg xmlns="http://www.w3.org/2000/svg" width="13.906" height="9.908" viewBox="0 0 13.906 9.908">
  <g id="email" transform="translate(0 -33.085)">
    <path id="Контур_90" data-name="Контур 90" d="M164.162,48.853c0-.016.011-.031.01-.047l-4.244,4.089,4.238,3.958c0-.028-.005-.057-.005-.086Z" transform="translate(-150.267 -14.771)" fill="#009100"/>
    <path id="Контур_91" data-name="Контур 91" d="M19.359,126.9l-1.732,1.667a.453.453,0,0,1-.623.005l-1.728-1.61-4.266,4.112a.983.983,0,0,0,.332.066H23.284a.982.982,0,0,0,.477-.131Z" transform="translate(-10.345 -88.148)" fill="#009100"/>
    <path id="Контур_92" data-name="Контур 92" d="M12.722,39.469,19.2,33.231a.981.981,0,0,0-.5-.146H6.756a.984.984,0,0,0-.626.234Z" transform="translate(-5.76)" fill="#009100"/>
    <path id="Контур_93" data-name="Контур 93" d="M0,52.1v7.762a.985.985,0,0,0,.043.257l4.213-4.057Z" transform="translate(0 -17.866)" fill="#009100"/>
  </g>
</svg>
