<svg xmlns="http://www.w3.org/2000/svg" width="26.077" height="26.077" viewBox="0 0 26.077 26.077">
  <g id="facebook" transform="translate(0)">
    <path id="Контур_87" data-name="Контур 87" d="M24.637,0H1.438A1.439,1.439,0,0,0,0,1.439v23.2a1.439,1.439,0,0,0,1.439,1.438h23.2a1.439,1.439,0,0,0,1.439-1.439h0V1.438A1.439,1.439,0,0,0,24.637,0Zm0,0" fill="#4267b2"/>
    <path id="Контур_88" data-name="Контур 88" d="M214.462,99.463V89.379h3.4l.509-3.947h-3.909V82.917c0-1.14.317-1.917,1.952-1.917h2.072V77.479a27.856,27.856,0,0,0-3.037-.155c-3,0-5.062,1.834-5.062,5.2v2.9H207v3.947h3.387V99.463Zm0,0" transform="translate(-196.457 -73.386)" fill="#fff"/>
  </g>
</svg>
