<svg xmlns="http://www.w3.org/2000/svg" xmlns:xlink="http://www.w3.org/1999/xlink" width="47.861" height="48.685" viewBox="0 0 47.861 48.685">
  <defs>
    <linearGradient id="linear-gradient" x1="0.5" x2="0.5" y2="1" gradientUnits="objectBoundingBox">
      <stop offset="0" stop-color="#003274"/>
      <stop offset="1" stop-color="#9dc1ce"/>
    </linearGradient>
  </defs>
  <g id="funeral" transform="translate(-3 -3)">
    <path id="Контур_47" data-name="Контур 47" d="M20.853,54H18.378v.825H6.229A1.64,1.64,0,0,0,7.65,57.3h3.3a1.65,1.65,0,0,0,0,3.3H19.2a1.65,1.65,0,1,0,0-3.3h1.65a1.65,1.65,0,1,0,0-3.3Z" transform="translate(-0.524 -8.916)" fill="url(#linear-gradient)"/>
    <path id="Контур_48" data-name="Контур 48" d="M6.65,35.069A6.222,6.222,0,0,0,5,38.313a1.65,1.65,0,0,0,3.3,0A6.222,6.222,0,0,0,6.65,35.069Z" transform="translate(-0.35 -5.606)" fill="url(#linear-gradient)"/>
    <path id="Контур_49" data-name="Контур 49" d="M3,45H9.6v6.6H3Z" transform="translate(0 -7.343)" fill="url(#linear-gradient)"/>
    <path id="Контур_50" data-name="Контур 50" d="M3,19H50.861v1.65H3Z" transform="translate(0 -2.797)" fill="url(#linear-gradient)"/>
    <path id="Контур_51" data-name="Контур 51" d="M8,41.833v.117h2.476a1.652,1.652,0,0,1,1.65,1.65v6.6h4.951V37c-.01.014-.038,0-.079,0H10.084a5.014,5.014,0,0,1,.391,1.65A3.3,3.3,0,0,1,8,41.833Z" transform="translate(-0.874 -5.943)" fill="url(#linear-gradient)"/>
    <path id="Контур_52" data-name="Контур 52" d="M37.4,11.8a3.251,3.251,0,0,1-.4.547v3.608H55.07a9.506,9.506,0,0,0-1.668-3.6A3.258,3.258,0,0,0,50.742,11H39.995a3.251,3.251,0,0,1-2.6.8Z" transform="translate(-5.944 -1.399)" fill="url(#linear-gradient)"/>
    <path id="Контур_53" data-name="Контур 53" d="M23.172,13.854a3.311,3.311,0,0,1-1.566-2.112A3.294,3.294,0,0,1,20.168,11H9.43a3.258,3.258,0,0,0-2.66,1.347,9.519,9.519,0,0,0-1.668,3.6h18.07Z" transform="translate(-0.367 -1.399)" fill="url(#linear-gradient)"/>
    <path id="Контур_54" data-name="Контур 54" d="M25.65,8.776h.825V9.6a1.649,1.649,0,0,0,3.194.575L30.136,8.9l.918,1a1.606,1.606,0,0,0,1.2.524,1.644,1.644,0,0,0,1.588-1.219l.242-.91.871.359a1.582,1.582,0,0,0,.6.12,1.652,1.652,0,0,0,1.65-1.65,1.63,1.63,0,0,0-1.145-1.565l-.46-.143-.1-.47A2.487,2.487,0,0,0,33.077,3a2.458,2.458,0,0,0-1.976.992l-.5.676-.668-.507a1.619,1.619,0,0,0-.985-.335,1.644,1.644,0,0,0-1.588,1.219l-.241.909-.87-.357a1.594,1.594,0,0,0-.6-.12,1.65,1.65,0,0,0,0,3.3Zm6.6-4.126H33.9V6.3h-1.65ZM27.3,6.3h1.65v1.65H27.3Z" transform="translate(-3.671)" fill="url(#linear-gradient)"/>
    <path id="Контур_55" data-name="Контур 55" d="M49.559,24.65V23H5v9.327a2.406,2.406,0,0,1,1.65-1.075c.718,0,1.466.725,2.068,1.65h2.058v-.117A3.3,3.3,0,0,1,8.3,29.6c0-1.476,1.726-4.951,3.3-4.951s3.3,3.475,3.3,4.951a3.3,3.3,0,0,1-2.476,3.184V32.9h4.047a1.674,1.674,0,0,1,1.73,1.607V36.2h6.6V26.278a1.641,1.641,0,0,1,1.65-1.628Z" transform="translate(-0.35 -3.497)" fill="url(#linear-gradient)"/>
    <path id="Контур_56" data-name="Контур 56" d="M33,13.871v2.582h1.65V13.869a3.227,3.227,0,0,1-1.65,0Z" transform="translate(-5.245 -1.9)" fill="url(#linear-gradient)"/>
    <path id="Контур_57" data-name="Контур 57" d="M29,16.552h1.65V14.436A3.273,3.273,0,0,1,29,14.9Z" transform="translate(-4.545 -1.999)" fill="url(#linear-gradient)"/>
    <path id="Контур_58" data-name="Контур 58" d="M37.021,38.966,35,40.986v12.69a5.889,5.889,0,0,1,4.462-5.714l1.459-.365.271-1.081a4.99,4.99,0,0,1-1.079-1.062l-.961-.24a3.3,3.3,0,0,1-2.5-3.2v-.789a7.159,7.159,0,0,1,.371-2.257Z" transform="translate(-5.594 -6.288)" fill="url(#linear-gradient)"/>
    <path id="Контур_59" data-name="Контур 59" d="M31,37.241v2.617L43.873,26.986l-2.62,0Z" transform="translate(-4.895 -4.193)" fill="url(#linear-gradient)"/>
    <path id="Контур_60" data-name="Контур 60" d="M38.918,26.991,31,27v7.91l1.65-1.65V28.649H37.26Z" transform="translate(-4.895 -4.194)" fill="url(#linear-gradient)"/>
    <path id="Контур_61" data-name="Контур 61" d="M36.309,31H35v1.309Z" transform="translate(-5.594 -4.895)" fill="url(#linear-gradient)"/>
    <path id="Контур_62" data-name="Контур 62" d="M54.55,31H44.99l-2,2a7.27,7.27,0,0,1,2.169-.378l.333-.007a7.322,7.322,0,0,1,5.836,2.728A7.2,7.2,0,0,1,52.9,39.83v.789a3.3,3.3,0,0,1-2.5,3.2l-.961.24a4.972,4.972,0,0,1-1.079,1.062L48.63,46.2l1.46.365a5.888,5.888,0,0,1,4.461,5.714Z" transform="translate(-6.991 -4.895)" fill="url(#linear-gradient)"/>
    <path id="Контур_63" data-name="Контур 63" d="M44.544,28.646H54.1V53.4H32.65V40.54L31,42.19V55.051H55.755V26.973l-9.546.009Z" transform="translate(-4.895 -4.191)" fill="url(#linear-gradient)"/>
    <path id="Контур_64" data-name="Контур 64" d="M48.6,42.576V41.314a9.4,9.4,0,0,1-3.3-1.922A9.4,9.4,0,0,1,42,41.314v1.263a3.3,3.3,0,1,0,6.6,0Z" transform="translate(-6.818 -6.362)" fill="url(#linear-gradient)"/>
    <path id="Контур_65" data-name="Контур 65" d="M49.627,42.79a1.645,1.645,0,0,0,.925-1.479v-.789a5.549,5.549,0,0,0-1.211-3.454,5.7,5.7,0,0,0-4.514-2.109l-.336.007A5.572,5.572,0,0,0,39,40.522v.789a1.645,1.645,0,0,0,.925,1.479,4.941,4.941,0,0,1-.1-.989V40.539a1.648,1.648,0,0,1,1.129-1.565,7.734,7.734,0,0,0,3.013-1.862l.809-.809.809.809A7.748,7.748,0,0,0,48.6,38.974a1.645,1.645,0,0,1,1.13,1.565V41.8a4.941,4.941,0,0,1-.1.989Z" transform="translate(-6.294 -5.587)" fill="url(#linear-gradient)"/>
    <path id="Контур_66" data-name="Контур 66" d="M14.3,30.313a6.225,6.225,0,0,0-1.65-3.244A6.222,6.222,0,0,0,11,30.313a1.65,1.65,0,0,0,3.3,0Z" transform="translate(-1.399 -4.208)" fill="url(#linear-gradient)"/>
    <path id="Контур_67" data-name="Контур 67" d="M44.289,49.012,44.042,50a.814.814,0,0,0,.791.655h1.65A.814.814,0,0,0,47.273,50l-.247-.985a4.84,4.84,0,0,1-2.738,0Z" transform="translate(-7.175 -8.044)" fill="url(#linear-gradient)"/>
    <path id="Контур_68" data-name="Контур 68" d="M51.853,55.856a4.241,4.241,0,0,0-3.212-4.113l-1.23-.308a2.465,2.465,0,0,1-2.159,1.291H43.6a2.469,2.469,0,0,1-2.16-1.291l-1.23.308A4.241,4.241,0,0,0,37,55.856v.171H51.853Z" transform="translate(-5.944 -8.468)" fill="url(#linear-gradient)"/>
  </g>
</svg>
