<svg xmlns="http://www.w3.org/2000/svg" xmlns:xlink="http://www.w3.org/1999/xlink" width="49.978" height="49.981" viewBox="0 0 49.978 49.981">
  <defs>
    <linearGradient id="linear-gradient" x1="0.5" x2="0.5" y2="1" gradientUnits="objectBoundingBox">
      <stop offset="0" stop-color="#003274"/>
      <stop offset="1" stop-color="#9dc1ce"/>
    </linearGradient>
  </defs>
  <g id="money" transform="translate(-0.017)">
    <path id="Контур_72" data-name="Контур 72" d="M375.869,9.94c.044.02,4.376,2.083,4.376,5.82a1.464,1.464,0,0,0,2.929,0c0-3.7,4.337-5.8,4.377-5.82a1.468,1.468,0,0,0,0-2.653c-.044-.021-4.381-2.117-4.381-5.822a1.464,1.464,0,0,0-2.929,0c0,3.7-4.337,5.8-4.376,5.821a1.465,1.465,0,0,0,0,2.654Z" transform="translate(-338.4 0)" fill="url(#linear-gradient)"/>
    <path id="Контур_73" data-name="Контур 73" d="M387.568,342.854c-.044-.02-4.377-2.084-4.377-5.82a1.464,1.464,0,1,0-2.929,0c0,3.7-4.337,5.8-4.376,5.82a1.467,1.467,0,0,0,0,2.652c.044.021,4.38,2.118,4.38,5.822a1.465,1.465,0,0,0,1.256,1.45h.021c.08.01.14.011.149.012h.037a1.465,1.465,0,0,0,.389-.052h0s0,0,0,0a1.464,1.464,0,0,0,1.067-1.41c0-3.7,4.337-5.8,4.377-5.82a1.466,1.466,0,0,0,0-2.654Z" transform="translate(-338.417 -302.812)" fill="url(#linear-gradient)"/>
    <path id="Контур_74" data-name="Контур 74" d="M12.558,342.856c-.043-.02-4.38-2.118-4.38-5.822a1.464,1.464,0,0,0-2.929,0c0,2.536-2.166,4.715-4.377,5.82a1.466,1.466,0,0,0-.158,2.566,1.321,1.321,0,0,0,.154.086c.044.021,4.381,2.118,4.381,5.822a1.464,1.464,0,0,0,1.256,1.45h.021c.048.006.1.01.145.012h.041a1.458,1.458,0,0,0,.389-.052h.008a1.464,1.464,0,0,0,1.068-1.41c0-3.7,4.336-5.8,4.376-5.82a1.467,1.467,0,0,0,0-2.652Z" transform="translate(-0.011 -302.812)" fill="url(#linear-gradient)"/>
    <path id="Контур_75" data-name="Контур 75" d="M.86,9.939c.044.021,4.377,2.084,4.377,5.82v0a1.464,1.464,0,0,0,2.929,0c0-3.7,4.337-5.8,4.376-5.82a1.466,1.466,0,0,0,0-2.652c-.044-.021-4.38-2.118-4.38-5.822a1.464,1.464,0,1,0-2.929,0c0,3.7-4.337,5.8-4.377,5.82A1.466,1.466,0,0,0,.86,9.939Z" fill="url(#linear-gradient)"/>
    <path id="Контур_76" data-name="Контур 76" d="M106.5,90.34a16.172,16.172,0,1,0,16.173,16.172A16.19,16.19,0,0,0,106.5,90.34Zm3.664,23.572a5.424,5.424,0,0,1-2.293,1.26v.9a1.464,1.464,0,0,1-2.929,0v-.761a6.718,6.718,0,0,1-3.236-1.222,1.49,1.49,0,0,1-.488-2,1.464,1.464,0,0,1,2.059-.474,4.335,4.335,0,0,0,3.12.819c2.67-.018,3.813-3.689,1.154-4.628a17.242,17.242,0,0,1-4.63-2.225,4.185,4.185,0,0,1-1.387-4.121,4.7,4.7,0,0,1,3.409-3.735v-.775a1.464,1.464,0,0,1,2.929,0v.675a5.782,5.782,0,0,1,2.173.94A1.454,1.454,0,0,1,108.469,101l-.245-.141a3.167,3.167,0,0,0-2.619-.28c-1.268.383-1.538,2.173-.875,2.7a15.316,15.316,0,0,0,3.8,1.767A5.189,5.189,0,0,1,110.166,113.912Z" transform="translate(-81.497 -81.521)" fill="url(#linear-gradient)"/>
  </g>
</svg>
