<svg xmlns="http://www.w3.org/2000/svg" xmlns:xlink="http://www.w3.org/1999/xlink" width="47.429" height="47.419" viewBox="0 0 47.429 47.419">
  <defs>
    <linearGradient id="linear-gradient" x1="0.5" x2="0.5" y2="1" gradientUnits="objectBoundingBox">
      <stop offset="0" stop-color="#003274"/>
      <stop offset="1" stop-color="#9dc1ce"/>
    </linearGradient>
  </defs>
  <g id="solid" transform="translate(-31.992 -32.062)">
    <rect id="Прямоугольник_7" data-name="Прямоугольник 7" width="3.388" height="7.622" transform="translate(47.237 51.534)" fill="url(#linear-gradient)"/>
    <path id="Контур_77" data-name="Контур 77" d="M200.627,402.474a16.956,16.956,0,0,0,11.724,0A39.969,39.969,0,0,0,200.627,402.474Z" transform="translate(-150.783 -330.813)" fill="url(#linear-gradient)"/>
    <path id="Контур_78" data-name="Контур 78" d="M107.625,343.824l-2.392-1.149a40.52,40.52,0,0,0-35.068,0l-2.393,1.149,2.444,3.665a42.211,42.211,0,0,1,34.966,0Zm-23.058-2.249-.783.569.3.921a.318.318,0,0,1-.489.355l-.783-.569-.783.569a.318.318,0,0,1-.489-.355l.3-.921-.783-.569a.318.318,0,0,1,.187-.575h.968l.3-.921a.318.318,0,0,1,.6,0l.3.921h.968a.318.318,0,0,1,.187.575Zm4.887-.612-.783.569.3.921a.318.318,0,0,1-.489.355l-.783-.569-.783.569a.318.318,0,0,1-.489-.355l.3-.921-.783-.569a.318.318,0,0,1,.187-.574H87.1l.3-.921a.318.318,0,0,1,.6,0l.3.921h.968a.318.318,0,0,1,.187.574Zm4.887.612-.783.569.3.921a.318.318,0,0,1-.489.355l-.783-.569-.783.569a.318.318,0,0,1-.489-.355l.3-.921-.783-.569a.318.318,0,0,1,.187-.575h.968l.3-.921a.318.318,0,0,1,.6,0l.3.921h.968a.318.318,0,0,1,.187.574Z" transform="translate(-31.992 -274.163)" fill="url(#linear-gradient)"/>
    <path id="Контур_79" data-name="Контур 79" d="M37.439,66.985q1.276-.612,2.594-1.137a18.633,18.633,0,1,1,31.346,0q1.317.525,2.595,1.137l2.066.992a23.713,23.713,0,1,0-40.666,0Z" transform="translate(0 0)" fill="url(#linear-gradient)"/>
    <path id="Контур_80" data-name="Контур 80" d="M233.316,165.974a.423.423,0,0,0-.423-.423.847.847,0,0,1,0-1.694h.847a.423.423,0,1,0,0-.847.847.847,0,0,1,0-1.694h.847a.423.423,0,1,0,0-.847.847.847,0,0,1,0-1.694h.847a.423.423,0,0,0,0-.847h-4.658a2.544,2.544,0,0,1-2.541-2.541v-2.541a.848.848,0,0,0-.847-.847h-.847v1.02a6.521,6.521,0,0,1-1.922,4.641l-.618.618V166.4h8.892A.423.423,0,0,0,233.316,165.974Z" transform="translate(-171.682 -107.241)" fill="url(#linear-gradient)"/>
    <path id="Контур_81" data-name="Контур 81" d="M137.006,413.418a18.654,18.654,0,0,1-8.784-2.2,40.881,40.881,0,0,0-5.3,1.559l1.242,1.863a.852.852,0,0,1,.066.122,23.726,23.726,0,0,0,25.559,0,.841.841,0,0,1,.066-.122l1.242-1.863a40.862,40.862,0,0,0-5.3-1.561A18.658,18.658,0,0,1,137.006,413.418Z" transform="translate(-81.3 -339.018)" fill="url(#linear-gradient)"/>
    <path id="Контур_82" data-name="Контур 82" d="M50.685,417.883a.847.847,0,0,1-1.069-.295l-1.488-2.232-2.269,1.361,2.086.417a.847.847,0,0,1,.68.876l-.189,3.488,4.921-2.956-.953-1.429Q51.536,417.479,50.685,417.883Z" transform="translate(-12.4 -342.718)" fill="url(#linear-gradient)"/>
    <path id="Контур_83" data-name="Контур 83" d="M399.046,417.588a.847.847,0,0,1-1.069.295q-.85-.4-1.721-.769l-.953,1.429,4.921,2.956-.189-3.488a.847.847,0,0,1,.68-.876l2.086-.417-2.269-1.361Z" transform="translate(-324.85 -342.718)" fill="url(#linear-gradient)"/>
    <path id="Контур_84" data-name="Контур 84" d="M126.983,122.407a16.938,16.938,0,1,0-28.091,0,42.14,42.14,0,0,1,28.091,0Zm-24.208-5.234v-9.316a.847.847,0,0,1,.847-.847h4.731l.618-.618a4.837,4.837,0,0,0,1.426-3.443v-1.867a.847.847,0,0,1,.847-.847h1.694a2.544,2.544,0,0,1,2.541,2.541v2.541a.848.848,0,0,0,.847.847h4.658a2.117,2.117,0,0,1,1.133,3.906,2.116,2.116,0,0,1-.847,2.541,2.116,2.116,0,0,1-.847,2.541,2.117,2.117,0,0,1-1.98,2.87H103.622A.847.847,0,0,1,102.775,117.173Z" transform="translate(-57.232 -57.17)" fill="url(#linear-gradient)"/>
  </g>
</svg>
