<svg id="_483947" data-name="483947" xmlns="http://www.w3.org/2000/svg" width="13.923" height="13.923" viewBox="0 0 13.923 13.923">
  <g id="Сгруппировать_1" data-name="Сгруппировать 1">
    <path id="Контур_40" data-name="Контур 40" d="M12.806,9.139a7.905,7.905,0,0,1-2.483-.4,1.135,1.135,0,0,0-1.1.233L7.654,10.158a8.652,8.652,0,0,1-3.89-3.889L4.911,4.744A1.125,1.125,0,0,0,5.188,3.6a7.917,7.917,0,0,1-.4-2.487A1.118,1.118,0,0,0,3.674,0H1.117A1.119,1.119,0,0,0,0,1.117,12.82,12.82,0,0,0,12.806,13.923a1.119,1.119,0,0,0,1.117-1.117v-2.55A1.119,1.119,0,0,0,12.806,9.139Z" fill="#009100"/>
  </g>
</svg>
