<svg xmlns="http://www.w3.org/2000/svg" xmlns:xlink="http://www.w3.org/1999/xlink" width="48.684" height="48.685" viewBox="0 0 48.684 48.685">
  <defs>
    <linearGradient id="linear-gradient" x1="0.5" x2="0.5" y2="1" gradientUnits="objectBoundingBox">
      <stop offset="0" stop-color="#003274"/>
      <stop offset="1" stop-color="#9dc1ce"/>
    </linearGradient>
  </defs>
  <g id="therapist" transform="translate(-0.001)">
    <path id="Shape" d="M13.658,44.833a2.231,2.231,0,0,0-.609.665,30.217,30.217,0,0,1,4.841,5.72A49.908,49.908,0,0,0,14.8,37.063a7,7,0,0,0-3.411,3,6.965,6.965,0,0,1,3.094,3.626.869.869,0,0,1-.821,1.144Z" transform="translate(-1.487 -4.842)" fill="url(#linear-gradient)"/>
    <path id="Shape-2" data-name="Shape" d="M5.216,51.451v-4.9a.869.869,0,0,1,1.739,0v5.216A1.739,1.739,0,0,0,8.694,53.5h7.144c-1.2-1.893-3.587-5.374-5.926-7.129a.869.869,0,0,1-.256-1.084,5.512,5.512,0,0,1,1.357-1.772,4.834,4.834,0,0,0-2.592-2.231.869.869,0,0,1-.527-1.162,10.006,10.006,0,0,1,2.388-3.241L6.665,37.2A7.291,7.291,0,0,0,5.216,51.451Z" transform="translate(0 -4.818)" fill="url(#linear-gradient)"/>
    <path id="Shape-3" data-name="Shape" d="M10.31,16s-.31.269-.31,1.678a3.447,3.447,0,0,0,1.256,3.077,31,31,0,0,1-.369-4.535A1.034,1.034,0,0,0,10.31,16Z" transform="translate(-1.306 -2.09)" fill="url(#linear-gradient)"/>
    <path id="Shape-4" data-name="Shape" d="M26.04,17.114V5.1c-1.414-1.109-2.4-.159-5.338-.159-2.482,0-3.3-.8-4.706-.091-1.273.636-2.127,2.808-2.127,4.438A17.648,17.648,0,0,1,13,13.767a27.791,27.791,0,0,0,.64,6.55c.956,3.733,3.262,7.23,7.184,7.23,3.8,0,6.059-3.293,7.068-6.884A4.34,4.34,0,0,1,26.04,17.114Z" transform="translate(-1.697 -0.596)" fill="url(#linear-gradient)"/>
    <path id="Shape-5" data-name="Shape" d="M14.917,2.7c2.034-1.017,3.115-.091,5.6-.091,2.333,0,3.4-.812,5.224-.076A4.313,4.313,0,0,1,26.067.958,18.943,18.943,0,0,0,20.522,0c-.069,0-6.555.045-8.868,3.13-1.237,1.652-1.03,6.6-.782,9.094a2.657,2.657,0,0,1,.274.077,14.929,14.929,0,0,0,.682-3.607c0-2.157,1.082-4.991,3.089-5.994Z" transform="translate(-1.396 0)" fill="url(#linear-gradient)"/>
    <path id="Shape-6" data-name="Shape" d="M25.733,35.249a29.618,29.618,0,0,1-.63-3.384,7.683,7.683,0,0,1-7.524.01,30.011,30.011,0,0,1-.62,3.377c1.5,2.621,7.273,2.612,8.775,0Z" transform="translate(-2.215 -4.163)" fill="url(#linear-gradient)"/>
    <path id="Shape-7" data-name="Shape" d="M50,0H32.608A2.608,2.608,0,0,0,30,2.608v13.91a2.608,2.608,0,0,0,2.608,2.608h.869a.869.869,0,0,1,.869.869v2.658l4.711-3.365c.32-.23-.44-.162,10.938-.162A2.608,2.608,0,0,0,52.6,16.518V2.608A2.608,2.608,0,0,0,50,0ZM48.257,10.432a1.739,1.739,0,0,1-1.739,1.739H43.91v2.608a1.739,1.739,0,0,1-1.739,1.739H40.432a1.739,1.739,0,0,1-1.739-1.739V12.171H36.086a1.739,1.739,0,0,1-1.739-1.739V8.694a1.739,1.739,0,0,1,1.739-1.739h2.608V4.347a1.739,1.739,0,0,1,1.739-1.739h1.739A1.739,1.739,0,0,1,43.91,4.347V6.955h2.608a1.739,1.739,0,0,1,1.739,1.739Z" transform="translate(-3.919)" fill="url(#linear-gradient)"/>
    <path id="Shape-8" data-name="Shape" d="M18.226,39.3A51.927,51.927,0,0,1,20.62,53.818h1.774A51.962,51.962,0,0,1,24.787,39.3a9.09,9.09,0,0,1-6.561,0Z" transform="translate(-2.381 -5.134)" fill="url(#linear-gradient)"/>
    <path id="Shape-9" data-name="Shape" d="M43.086,7.608V5H41.347V7.608a1.739,1.739,0,0,1-1.739,1.739H37v1.739h2.608a1.739,1.739,0,0,1,1.739,1.739v2.608h1.739V12.824a1.739,1.739,0,0,1,1.739-1.739h2.608V9.347H44.824A1.739,1.739,0,0,1,43.086,7.608Z" transform="translate(-4.833 -0.653)" fill="url(#linear-gradient)"/>
    <path id="Shape-10" data-name="Shape" d="M28.222,37.064a50.124,50.124,0,0,0-3.094,14.153A30.262,30.262,0,0,1,29.972,45.5a2.019,2.019,0,0,0-.643-.67.843.843,0,0,1-.782-1.14,6.966,6.966,0,0,1,3.091-3.625A7.049,7.049,0,0,0,28.222,37.064Z" transform="translate(-3.282 -4.842)" fill="url(#linear-gradient)"/>
    <path id="Shape-11" data-name="Shape" d="M34.954,37.2l-3.61-.312a10.015,10.015,0,0,1,2.385,3.238.869.869,0,0,1-.527,1.162,4.8,4.8,0,0,0-2.6,2.228A5.5,5.5,0,0,1,31.97,45.29a.869.869,0,0,1-.261,1.084c-2.339,1.754-4.727,5.236-5.926,7.129h7.144a1.739,1.739,0,0,0,1.739-1.739V46.548a.869.869,0,0,1,1.739,0v4.9A7.291,7.291,0,0,0,34.954,37.2Z" transform="translate(-3.368 -4.819)" fill="url(#linear-gradient)"/>
  </g>
</svg>
